<svg xmlns="http://www.w3.org/2000/svg" viewBox="0 0 161.75 63.97"><defs><style>.cls-1{fill:#1d1d1b;}</style></defs><title>gericault</title><g id="Calque_2" data-name="Calque 2"><g id="Calque_1-2" data-name="Calque 1"><path class="cls-1" d="M16.91,5.57h-.72q0-1.05-.12-1.74a2.22,2.22,0,0,0-.39-1.08,1.63,1.63,0,0,0-.88-.6A5.62,5.62,0,0,0,13.27,2H9.47V22.73a14.93,14.93,0,0,0,.11,2,2.81,2.81,0,0,0,.4,1.19,1.53,1.53,0,0,0,.81.6,4.28,4.28,0,0,0,1.31.16v.91l-1.62,0-1.89,0H6.68c-.62,0-1.15,0-1.6,0v-.91a2.38,2.38,0,0,0,2.07-.76,6.27,6.27,0,0,0,.53-3.18V2H4.42a6.59,6.59,0,0,0-1.62.16,2.24,2.24,0,0,0-1,.56A2.68,2.68,0,0,0,1.14,3.8,13,13,0,0,0,.72,5.57H0l.29-5C1.45.65,2.77.7,4.23.72s2.95,0,4.47,0,3,0,4.49,0,2.79-.07,4-.14Z"/><path class="cls-1" d="M35.67,12.69V5a9.65,9.65,0,0,0-.13-1.82,2.29,2.29,0,0,0-.43-1,1.3,1.3,0,0,0-.81-.46A10.18,10.18,0,0,0,33,1.52V.58c.37,0,.89,0,1.55.05s1.34,0,2,0,1.38,0,2,0,1.1,0,1.44-.05v.94a8,8,0,0,0-1.28.14,1.33,1.33,0,0,0-.8.47,2,2,0,0,0-.43,1A12.07,12.07,0,0,0,37.44,5V22.77a15,15,0,0,0,.11,2A2.77,2.77,0,0,0,38,26a1.42,1.42,0,0,0,.8.58,4.81,4.81,0,0,0,1.31.14v.91c-.34,0-.82,0-1.45-.06l-2,0-2,0c-.66,0-1.18,0-1.55.06v-.91a4.06,4.06,0,0,0,1.33-.18,1.6,1.6,0,0,0,.81-.61,2.87,2.87,0,0,0,.4-1.18,14.3,14.3,0,0,0,.1-1.93V14.2H23v8.57a17.36,17.36,0,0,0,.08,1.95,2.46,2.46,0,0,0,.37,1.19,1.39,1.39,0,0,0,.78.6,4.55,4.55,0,0,0,1.36.16v.91l-1.48,0-2,0h-2c-.64,0-1.14,0-1.5,0v-.91a2.37,2.37,0,0,0,2.11-.77,6.39,6.39,0,0,0,.51-3.13V5.06a11.1,11.1,0,0,0-.12-1.84,2.33,2.33,0,0,0-.41-1.05,1.3,1.3,0,0,0-.81-.51,7.78,7.78,0,0,0-1.28-.14V.58a12.09,12.09,0,0,0,1.46.09l2,0,2,0A13.08,13.08,0,0,0,25.61.58v.94a6.72,6.72,0,0,0-1.28.16,1.52,1.52,0,0,0-.81.49,2.49,2.49,0,0,0-.4,1.08A12.59,12.59,0,0,0,23,5.06v7.63Z"/><path class="cls-1" d="M46.46,12.83h4a1.86,1.86,0,0,0,1.65-.69,5.07,5.07,0,0,0,.47-2.63h.64v8.56h-.64a15.5,15.5,0,0,0-.1-1.88,2.92,2.92,0,0,0-.33-1.12,1.2,1.2,0,0,0-.66-.58,3.49,3.49,0,0,0-1.06-.14h-4v8.53a11.53,11.53,0,0,0,.12,1.86,1.78,1.78,0,0,0,.52,1.07,1.87,1.87,0,0,0,1.06.52,10.48,10.48,0,0,0,1.78.13h1.85a7,7,0,0,0,1.87-.22,2.71,2.71,0,0,0,1.26-.76A4.33,4.33,0,0,0,55.77,24a19.26,19.26,0,0,0,.7-2.33h.7c-.13.48-.25,1-.37,1.46l-.33,1.46q-.16.77-.3,1.5t-.24,1.47c-2.33,0-4.7-.08-7.09-.08s-4.68,0-6.88.08v-.91c1.13,0,1.86-.25,2.2-.76a6,6,0,0,0,.51-3V5a10.94,10.94,0,0,0-.12-1.81,2,2,0,0,0-.45-1.05,1.6,1.6,0,0,0-.81-.45A6,6,0,0,0,42,1.55V.61c2.14.08,4.35.11,6.61.11S53,.69,55,.61V6.36h-.56A19.62,19.62,0,0,0,54.13,4a3.07,3.07,0,0,0-.66-1.43,2.26,2.26,0,0,0-1.18-.65,8.61,8.61,0,0,0-1.95-.18H46.46Z"/><path class="cls-1" d="M79.08,14a19.32,19.32,0,0,1-.72,5.24,16.34,16.34,0,0,1-2,4.56A10.69,10.69,0,0,1,73.22,27a7.06,7.06,0,0,1-7.77.09,10.59,10.59,0,0,1-3.09-3,15.12,15.12,0,0,1-2.1-4.45,18.41,18.41,0,0,1-.77-5.35A19.5,19.5,0,0,1,60.2,9a17.06,17.06,0,0,1,2-4.57,11.4,11.4,0,0,1,3.11-3.22,7,7,0,0,1,4-1.23,6.87,6.87,0,0,1,3.76,1.14,11.25,11.25,0,0,1,3.11,3.05,16.2,16.2,0,0,1,2.1,4.45A17.59,17.59,0,0,1,79.08,14ZM76.94,15a24.44,24.44,0,0,0-.48-4.67A18.5,18.5,0,0,0,75,5.86a10.15,10.15,0,0,0-2.48-3.4A5.17,5.17,0,0,0,69,1.12,5.3,5.3,0,0,0,66,2a8.2,8.2,0,0,0-2.35,2.5,13.21,13.21,0,0,0-1.49,3.79,20.24,20.24,0,0,0-.54,4.81,24.58,24.58,0,0,0,.48,4.7,19.61,19.61,0,0,0,1.45,4.52A10.5,10.5,0,0,0,66,25.72,5.19,5.19,0,0,0,69.56,27a5.69,5.69,0,0,0,3.14-.88A7.31,7.31,0,0,0,75,23.67a13.19,13.19,0,0,0,1.43-3.79A22.16,22.16,0,0,0,76.94,15Z"/><path class="cls-1" d="M84.44,4.88a10.66,10.66,0,0,0-.11-1.66,2.34,2.34,0,0,0-.38-1,1.46,1.46,0,0,0-.81-.54,5.53,5.53,0,0,0-1.35-.14V.61c1.12,0,2.38,0,3.78,0s2.75,0,4,0a9.56,9.56,0,0,1,4.64,1.12,10.45,10.45,0,0,1,3.44,3A13.63,13.63,0,0,1,99.84,9a17.13,17.13,0,0,1,.73,5,18.36,18.36,0,0,1-.69,5,13.4,13.4,0,0,1-2.09,4.31,10.51,10.51,0,0,1-3.53,3.06,10.34,10.34,0,0,1-5,1.14l-1.77,0-2,0-2,0-1.75,0v-1a5.6,5.6,0,0,0,1.35-.13A1.3,1.3,0,0,0,84,26a2.62,2.62,0,0,0,.38-1.1A12.78,12.78,0,0,0,84.44,23Zm1.79,18.18a9.51,9.51,0,0,0,.13,1.79,1.7,1.7,0,0,0,1.58,1.5,12.42,12.42,0,0,0,1.8.11,7.59,7.59,0,0,0,4-1,8.22,8.22,0,0,0,2.76-2.71,12.11,12.11,0,0,0,1.6-4A21.79,21.79,0,0,0,98.62,14,17.89,17.89,0,0,0,98,8.87,11.56,11.56,0,0,0,96.05,5a8.76,8.76,0,0,0-3-2.4,9.16,9.16,0,0,0-4-.85l-.9,0-.76.05-.65.06-.45,0Z"/><path class="cls-1" d="M123.8,14a19.32,19.32,0,0,1-.72,5.24,16.34,16.34,0,0,1-2,4.56A10.69,10.69,0,0,1,117.94,27a7.06,7.06,0,0,1-7.77.09,10.59,10.59,0,0,1-3.09-3,15.64,15.64,0,0,1-2.1-4.45,18.41,18.41,0,0,1-.77-5.35A19.5,19.5,0,0,1,104.92,9a17.06,17.06,0,0,1,2-4.57A11.4,11.4,0,0,1,110,1.23,7,7,0,0,1,114,0a6.87,6.87,0,0,1,3.76,1.14,11.25,11.25,0,0,1,3.11,3.05A16.2,16.2,0,0,1,123,8.64,17.59,17.59,0,0,1,123.8,14ZM121.66,15a24.44,24.44,0,0,0-.48-4.67,18.5,18.5,0,0,0-1.47-4.51,10.15,10.15,0,0,0-2.48-3.4,5.17,5.17,0,0,0-3.54-1.34,5.3,5.3,0,0,0-3,.9,8.18,8.18,0,0,0-2.34,2.5,12.93,12.93,0,0,0-1.5,3.79,20.24,20.24,0,0,0-.54,4.81,24.58,24.58,0,0,0,.48,4.7,19.61,19.61,0,0,0,1.45,4.52,10.5,10.5,0,0,0,2.49,3.38A5.19,5.19,0,0,0,114.28,27a5.69,5.69,0,0,0,3.14-.88,7.31,7.31,0,0,0,2.32-2.48,13.19,13.19,0,0,0,1.43-3.79A22.16,22.16,0,0,0,121.66,15Z"/><path class="cls-1" d="M131.11,14.78v8a16.51,16.51,0,0,0,.09,1.93,3,3,0,0,0,.37,1.18,1.53,1.53,0,0,0,.8.61,4.18,4.18,0,0,0,1.36.18v.91c-.35,0-.85,0-1.5-.06l-2,0-2,0c-.65,0-1.15,0-1.49.06v-.87a5,5,0,0,0,1.27-.13,1.35,1.35,0,0,0,.79-.52,2.9,2.9,0,0,0,.42-1.21,14.26,14.26,0,0,0,.12-2.08V5.06a10.94,10.94,0,0,0-.12-1.81,2.49,2.49,0,0,0-.42-1.08,1.46,1.46,0,0,0-.8-.49,6.71,6.71,0,0,0-1.26-.16V.58c.45,0,1,0,1.69.05s1.38,0,2.11,0,1.45,0,2.14,0l1.77-.05a5.83,5.83,0,0,1,3,.7A6.05,6.05,0,0,1,139.33,3a7.49,7.49,0,0,1,.95,2.22,9.77,9.77,0,0,1,.28,2.15,8.07,8.07,0,0,1-.34,2.41,7.88,7.88,0,0,1-.89,2A6.62,6.62,0,0,1,138,13.26a5,5,0,0,1-1.5.91c.34.79.74,1.66,1.19,2.58s.93,1.84,1.41,2.73,1,1.78,1.4,2.59.86,1.47,1.2,2a8.75,8.75,0,0,0,1.41,1.84,2.49,2.49,0,0,0,1.8.76v.91c-.65,0-1.28-.08-1.92-.08s-1.23,0-1.8.08c-.52-.89-1.06-1.89-1.64-3s-1.14-2.23-1.71-3.36-1.15-2.29-1.7-3.4-1-2.12-1.48-3Zm0-1.33a3.65,3.65,0,0,0,1,.12l1.07,0a5.54,5.54,0,0,0,2.53-.52,4.67,4.67,0,0,0,1.67-1.4,5.22,5.22,0,0,0,.93-1.89,8.75,8.75,0,0,0,.28-2.15,9.64,9.64,0,0,0-.28-2.32,5.21,5.21,0,0,0-.9-1.88,4.17,4.17,0,0,0-1.61-1.24,5.85,5.85,0,0,0-2.43-.46c-.41,0-.83,0-1.25.06s-.75.08-1,.13Z"/><path class="cls-1" d="M151.05,12.83h4a1.86,1.86,0,0,0,1.65-.69,5.1,5.1,0,0,0,.46-2.63h.65v8.56h-.65a15.81,15.81,0,0,0-.09-1.88,2.92,2.92,0,0,0-.33-1.12,1.2,1.2,0,0,0-.66-.58,3.49,3.49,0,0,0-1.06-.14h-4v8.53a11.53,11.53,0,0,0,.12,1.86,1.78,1.78,0,0,0,.52,1.07,1.87,1.87,0,0,0,1.06.52,10.48,10.48,0,0,0,1.78.13h1.84a7.08,7.08,0,0,0,1.88-.22,2.71,2.71,0,0,0,1.26-.76,4.5,4.5,0,0,0,.85-1.46,21.25,21.25,0,0,0,.7-2.33h.69l-.36,1.46-.33,1.46q-.17.77-.3,1.5t-.24,1.47c-2.33,0-4.7-.08-7.09-.08s-4.68,0-6.88.08v-.91c1.13,0,1.86-.25,2.2-.76a6,6,0,0,0,.51-3V5a10.94,10.94,0,0,0-.12-1.81,2.13,2.13,0,0,0-.45-1.05,1.6,1.6,0,0,0-.81-.45,6,6,0,0,0-1.33-.13V.61c2.14.08,4.35.11,6.61.11s4.41,0,6.43-.11V6.36H159a18.06,18.06,0,0,0-.3-2.4,3.17,3.17,0,0,0-.66-1.43,2.26,2.26,0,0,0-1.18-.65,8.61,8.61,0,0,0-1.95-.18h-3.88Z"/><path class="cls-1" d="M18.2,38.34l.57,5.88h-1.7a8,8,0,0,0-2-4.64,5.38,5.38,0,0,0-3.82-1.38,5.87,5.87,0,0,0-3.37,1,8.45,8.45,0,0,0-2.5,2.67A13.71,13.71,0,0,0,3.8,45.67,17.62,17.62,0,0,0,3.27,50a18.73,18.73,0,0,0,.54,4.53,13.63,13.63,0,0,0,1.6,3.87A8.55,8.55,0,0,0,8,61.11a6,6,0,0,0,3.43,1A6.51,6.51,0,0,0,13,62a5.53,5.53,0,0,0,1.11-.37,2.87,2.87,0,0,0,.73-.44,4.31,4.31,0,0,0,.41-.37v-5.2a5.79,5.79,0,0,0-.11-1.32,1.2,1.2,0,0,0-.39-.7,1.72,1.72,0,0,0-.8-.3,9.3,9.3,0,0,0-1.3-.07V51.49c.55,0,1.16,0,1.84.06h4.1c.65,0,1.22,0,1.71-.06v1.66a5.24,5.24,0,0,0-1,.07,1.18,1.18,0,0,0-.63.31,1.43,1.43,0,0,0-.34.72,6.54,6.54,0,0,0-.1,1.32v4.54l.44.56v1a19.59,19.59,0,0,1-3.8,1.69,12.24,12.24,0,0,1-3.72.56,9.53,9.53,0,0,1-4.53-1.09,10.77,10.77,0,0,1-3.52-3A14,14,0,0,1,.81,55.55,16.89,16.89,0,0,1,0,50.26a17.29,17.29,0,0,1,.84-5.48,14.42,14.42,0,0,1,2.3-4.41,11.07,11.07,0,0,1,3.43-3,8.73,8.73,0,0,1,4.22-1.07,12.36,12.36,0,0,1,3.77.56A35.09,35.09,0,0,1,18.2,38.34Z"/><path class="cls-1" d="M27.06,38.77v9.81H30.6a2.26,2.26,0,0,0,.74-.11.86.86,0,0,0,.48-.46,2.88,2.88,0,0,0,.25-1c0-.41.07-1,.07-1.67h1.67v9H32.14c0-.8,0-1.43-.06-1.92a3.35,3.35,0,0,0-.22-1.07.81.81,0,0,0-.46-.45,2.64,2.64,0,0,0-.83-.11H27.06v7.77a9.93,9.93,0,0,0,.1,1.62,1.34,1.34,0,0,0,1.26,1.28,10,10,0,0,0,1.52.09h1.95a6.17,6.17,0,0,0,1.63-.18,2.23,2.23,0,0,0,1.1-.68,4.33,4.33,0,0,0,.77-1.39c.21-.59.43-1.35.67-2.29h1.79c-.26,1-.52,2.1-.77,3.2s-.48,2.17-.66,3.2l-3.75,0-3.87,0-3.83,0-3.62,0V61.76a7.52,7.52,0,0,0,1.43-.11,1.35,1.35,0,0,0,.81-.45,2,2,0,0,0,.37-1A14.76,14.76,0,0,0,24,58.52v-17A13.87,13.87,0,0,0,24,39.89,1.63,1.63,0,0,0,23.6,39a1.23,1.23,0,0,0-.81-.37,10.89,10.89,0,0,0-1.44-.07V36.9c1.14,0,2.31,0,3.53.06h7.31c1.19,0,2.32,0,3.4-.06v6.33H34c-.08-1-.16-1.81-.26-2.41a3,3,0,0,0-.51-1.35,1.61,1.61,0,0,0-1-.58,9.14,9.14,0,0,0-1.65-.12Z"/><path class="cls-1" d="M46.82,51.21H44.29v7.28a12.69,12.69,0,0,0,.09,1.69,2.05,2.05,0,0,0,.34,1,1.3,1.3,0,0,0,.78.48,6.73,6.73,0,0,0,1.43.12v1.72l-1.78-.07c-.76,0-1.54,0-2.35,0H40.45c-.75,0-1.33,0-1.75.09V61.79a9.83,9.83,0,0,0,1.38-.08,1.21,1.21,0,0,0,.78-.43,1.81,1.81,0,0,0,.35-1c0-.44.07-1.06.07-1.86V41.61A11.74,11.74,0,0,0,41.19,40a1.77,1.77,0,0,0-.34-.91,1.29,1.29,0,0,0-.78-.42,7.2,7.2,0,0,0-1.37-.11V36.87c.51,0,1.13,0,1.88,0h4.59c.73,0,1.34,0,1.81,0a7,7,0,0,1,3.34.7,5.86,5.86,0,0,1,2,1.74,6.21,6.21,0,0,1,1,2.25,9.72,9.72,0,0,1,.29,2.2,7.72,7.72,0,0,1-.34,2.35,8.59,8.59,0,0,1-.89,2,6.61,6.61,0,0,1-1.25,1.45,4.54,4.54,0,0,1-1.42.85c.33.7.71,1.47,1.14,2.32s.88,1.68,1.33,2.51.91,1.63,1.35,2.38.82,1.38,1.15,1.89a8.2,8.2,0,0,0,1.36,1.6,2.79,2.79,0,0,0,2,.69v1.72c-.79-.07-1.61-.1-2.47-.1s-1.64,0-2.33.1c-.53-.89-1.09-1.87-1.66-2.95s-1.15-2.17-1.72-3.27L48.25,54C47.72,53,47.24,52.06,46.82,51.21Zm-2.53-2,1.43.07a4.67,4.67,0,0,0,2.22-.47,4.24,4.24,0,0,0,1.47-1.23,4.74,4.74,0,0,0,.81-1.71,7.24,7.24,0,0,0,.25-1.9,9.07,9.07,0,0,0-.23-2.1,4.62,4.62,0,0,0-.77-1.66,3.54,3.54,0,0,0-1.42-1.09,5.46,5.46,0,0,0-2.16-.38h-1a2.21,2.21,0,0,0-.62.07Z"/><path class="cls-1" d="M61.36,58.42V41.61c0-.72,0-1.29-.06-1.7A1.53,1.53,0,0,0,61,39a1.35,1.35,0,0,0-.79-.39,8.92,8.92,0,0,0-1.43-.09V36.8c.27,0,.63,0,1.06.05l1.42,0h3.23c.51,0,1,0,1.44,0a10.47,10.47,0,0,0,1.08,0v1.69a8.56,8.56,0,0,0-1.41.09,1.26,1.26,0,0,0-.77.39,1.67,1.67,0,0,0-.33.91c0,.41-.07,1-.07,1.7V58.42a13.21,13.21,0,0,0,.09,1.74,2,2,0,0,0,.35,1,1.39,1.39,0,0,0,.78.48,6.21,6.21,0,0,0,1.36.12v1.69c-.42,0-1,0-1.75-.06H62.86c-.81,0-1.6,0-2.35,0l-1.78.07V61.76a6.31,6.31,0,0,0,1.37-.12,1.44,1.44,0,0,0,.81-.48,1.91,1.91,0,0,0,.37-1A13.51,13.51,0,0,0,61.36,58.42Z"/><path class="cls-1" d="M86.56,38.34l.3,5.95H85.3a8.16,8.16,0,0,0-1.73-4.68,4.92,4.92,0,0,0-3.74-1.41,6.17,6.17,0,0,0-3.11.83,7.87,7.87,0,0,0-2.51,2.32A11.65,11.65,0,0,0,72.53,45a17.44,17.44,0,0,0-.6,4.73,18.44,18.44,0,0,0,.66,5.13,13,13,0,0,0,1.8,3.91,8.36,8.36,0,0,0,2.66,2.49,6.29,6.29,0,0,0,3.22.88,3.9,3.9,0,0,0,3.35-1.72,10.48,10.48,0,0,0,1.65-4.61h1.67L86.17,62a5.92,5.92,0,0,1-1.27.79,11,11,0,0,1-1.66.63,15.54,15.54,0,0,1-1.79.43,10.08,10.08,0,0,1-1.64.15,10,10,0,0,1-4.52-1,10.32,10.32,0,0,1-3.51-2.88,13.61,13.61,0,0,1-2.28-4.48,19.5,19.5,0,0,1-.81-5.78,15.23,15.23,0,0,1,.93-5.4,14.38,14.38,0,0,1,2.47-4.27,11.36,11.36,0,0,1,3.53-2.8,9,9,0,0,1,4.1-1,10.86,10.86,0,0,1,3.56.6A24.88,24.88,0,0,1,86.56,38.34Z"/><path class="cls-1" d="M94.52,53.74l-1.29,4.89a8.89,8.89,0,0,0-.33,1.44A1.57,1.57,0,0,0,93,61a1.13,1.13,0,0,0,.67.54,4.13,4.13,0,0,0,1.39.18v1.65c-.52,0-1.08,0-1.69,0H89.66q-.9,0-1.68,0V61.69a3.91,3.91,0,0,0,1.25-.16A1.78,1.78,0,0,0,90,61a3.73,3.73,0,0,0,.55-1c.15-.43.32-1,.51-1.66l6.09-22.43h1.54l5.92,22.5a13.15,13.15,0,0,0,.54,1.69,3,3,0,0,0,.62,1,2.15,2.15,0,0,0,.83.51,7.9,7.9,0,0,0,1.2.26v1.58c-.52,0-1.11,0-1.79,0h-4.17c-.68,0-1.27,0-1.78,0V61.76a6.81,6.81,0,0,0,1.38-.11.9.9,0,0,0,.65-.42,1.52,1.52,0,0,0,0-.95c-.08-.42-.22-1-.4-1.72l-1.26-4.82Zm.52-2h5l-2.45-9.35Z"/><path class="cls-1" d="M128.49,36.76v1.76a8.27,8.27,0,0,0-1.25.07,1,1,0,0,0-.67.37,1.72,1.72,0,0,0-.26.9c0,.4,0,1,0,1.68V54.83a13.08,13.08,0,0,1-.49,3.64,8.32,8.32,0,0,1-1.46,2.88,6.91,6.91,0,0,1-2.39,1.92,7.34,7.34,0,0,1-3.29.7,8.38,8.38,0,0,1-3.21-.58A6.07,6.07,0,0,1,113,61.62a8.47,8.47,0,0,1-1.55-3,15.11,15.11,0,0,1-.58-4.23V41.68a12.69,12.69,0,0,0-.08-1.68,1.86,1.86,0,0,0-.34-1,1.35,1.35,0,0,0-.78-.42,7.4,7.4,0,0,0-1.4-.11V36.8c.4.05,1,.08,1.72.1s1.54,0,2.37,0,1.61,0,2.37,0,1.36,0,1.8-.1v1.72a7.25,7.25,0,0,0-1.4.11,1.37,1.37,0,0,0-.8.42,1.86,1.86,0,0,0-.36,1,14.69,14.69,0,0,0-.08,1.68V53.43q0,4.43,1.32,6.38a4.68,4.68,0,0,0,4.17,1.95,3.81,3.81,0,0,0,1.92-.49,4.53,4.53,0,0,0,1.51-1.39,7.09,7.09,0,0,0,1-2.2,11,11,0,0,0,.36-2.92V41.68c0-.72,0-1.29,0-1.7a1.54,1.54,0,0,0-.27-.91,1.13,1.13,0,0,0-.71-.39,9.73,9.73,0,0,0-1.36-.12V36.8c.38.05.89.07,1.51.09h1.93c.67,0,1.3,0,1.9,0A12.4,12.4,0,0,0,128.49,36.76Z"/><path class="cls-1" d="M145.64,57l-1.2,6.4-2.14,0-2.56,0h-5.55l-2.58,0-2.18,0V61.79a8.55,8.55,0,0,0,1.38-.14,1.28,1.28,0,0,0,.78-.45,2,2,0,0,0,.35-1q.06-.68.06-1.83V41.65q0-1.09-.06-1.71a1.82,1.82,0,0,0-.33-.93,1.27,1.27,0,0,0-.79-.4,8.46,8.46,0,0,0-1.39-.09V36.8c.4.05,1,.07,1.71.09h4.71c.77,0,1.37,0,1.81-.09v1.72a8.59,8.59,0,0,0-1.4.09,1.33,1.33,0,0,0-.8.4,1.73,1.73,0,0,0-.35.93,12.16,12.16,0,0,0-.09,1.67v16.7a7.52,7.52,0,0,0,.17,1.78,1.58,1.58,0,0,0,.66,1,3.18,3.18,0,0,0,1.38.4c.6.06,1.39.09,2.38.09a8,8,0,0,0,1.77-.16,2.51,2.51,0,0,0,1.18-.63,3.64,3.64,0,0,0,.79-1.37A21.52,21.52,0,0,0,144,57Z"/><path class="cls-1" d="M161.75,36.83l-.22,5.59h-1.72c0-.7-.06-1.27-.1-1.72a2.62,2.62,0,0,0-.3-1,1.29,1.29,0,0,0-.69-.51A4.39,4.39,0,0,0,157.5,39h-3.38V58.42a13.51,13.51,0,0,0,.09,1.77,1.89,1.89,0,0,0,.35,1,1.51,1.51,0,0,0,.8.46,6.31,6.31,0,0,0,1.37.12v1.65c-.53,0-1.16,0-1.88,0h-4.49c-.73,0-1.35,0-1.86.06V61.76a6.15,6.15,0,0,0,1.36-.12,1.45,1.45,0,0,0,.78-.46,2,2,0,0,0,.37-1,13.21,13.21,0,0,0,.1-1.77V39h-2.89a5.42,5.42,0,0,0-1.33.13,1.56,1.56,0,0,0-.82.47,2.72,2.72,0,0,0-.52,1,15.67,15.67,0,0,0-.4,1.77h-1.78l.38-5.59c1.23.07,2.63.12,4.2.14s3.18,0,4.82,0,3.23,0,4.8,0S160.53,36.88,161.75,36.83Z"/></g></g></svg>